<?xml version="1.0" standalone="no"?><!DOCTYPE svg PUBLIC "-//W3C//DTD SVG 1.1//EN" "http://www.w3.org/Graphics/SVG/1.1/DTD/svg11.dtd"><svg t="1696853502426" class="icon" viewBox="0 0 1024 1024" version="1.1" xmlns="http://www.w3.org/2000/svg" p-id="2317" xmlns:xlink="http://www.w3.org/1999/xlink" width="200" height="200"><path d="M802.91 512.61l110.24 110.24L1024 512 913.76 401.76 803.52 512l-0.61 0.61zM512 396.852L627.138 511.99 512 627.128 396.862 511.99z" fill="#FAAF3A" p-id="2318"></path><path d="M666.34 649.19L512 803.52 308.67 600.19 198.43 710.43 512 1024l312.96-312.96L714.72 600.8l-48.38 48.39zM110.85 401.15L0 512l110.24 110.24L220.48 512l0.61-0.61-110.24-110.24zM512 0L199.04 312.96 309.28 423.2l3.06-3.07L512 220.48l203.33 203.33 110.24-110.24L512 0z" fill="#FAAF3A" p-id="2319"></path></svg>